<svg version="1.1" xmlns="http://www.w3.org/2000/svg" xmlns:xlink="http://www.w3.org/1999/xlink" width="64px" height="64px" viewBox="0,0,256,256"><defs><radialGradient cx="-1.2875" cy="62.7" r="147.795" gradientUnits="userSpaceOnUse" id="color-1"><stop offset="0" stop-color="#ed806b"></stop><stop offset="0.36" stop-color="#b58152"></stop><stop offset="0.44" stop-color="#b58152"></stop><stop offset="0.6" stop-color="#ed806b"></stop><stop offset="0.83" stop-color="#b58152"></stop><stop offset="0.88" stop-color="#b58152"></stop></radialGradient></defs><g fill="none" fill-rule="nonzero" stroke="none" stroke-width="1" stroke-linecap="butt" stroke-linejoin="miter" stroke-miterlimit="10" stroke-dasharray="" stroke-dashoffset="0" font-family="none" font-weight="none" font-size="none" text-anchor="none" style="mix-blend-mode: normal"><g transform="scale(4,4)"><g id="_3-instagram"><rect x="-64" y="-64" transform="rotate(180)" width="64" height="64" rx="11.2" ry="11.2" fill="url(#color-1)"></rect><path d="M44,56h-24c-6.62742,0 -12,-5.37258 -12,-12v-24c0,-6.62742 5.37258,-12 12,-12h24c6.62742,0 12,5.37258 12,12v24c0,6.62742 -5.37258,12 -12,12zM20,12.8c-3.97417,0.00551 -7.19449,3.22583 -7.2,7.2v24c0.00551,3.97417 3.22583,7.19449 7.2,7.2h24c3.97417,-0.00551 7.19449,-3.22583 7.2,-7.2v-24c-0.00551,-3.97417 -3.22583,-7.19449 -7.2,-7.2z" fill="#ffffff"></path><path d="M32,45.6c-7.51107,0 -13.6,-6.08893 -13.6,-13.6c0,-7.51107 6.08893,-13.6 13.6,-13.6c7.51107,0 13.6,6.08893 13.6,13.6c-0.00552,7.50879 -6.09121,13.59448 -13.6,13.6zM32,23.2c-4.86011,0 -8.8,3.93989 -8.8,8.8c0,4.86011 3.93989,8.8 8.8,8.8c4.86011,0 8.8,-3.93989 8.8,-8.8c-0.00551,-4.85782 -3.94218,-8.79449 -8.8,-8.8z" fill="#ffffff"></path><circle cx="45.6" cy="19.2" r="2.4" fill="#ffffff"></circle></g></g></g></svg>