<svg version="1.1" xmlns="http://www.w3.org/2000/svg" xmlns:xlink="http://www.w3.org/1999/xlink" width="256px" height="256px" viewBox="0,0,256,256"><g fill="none" fill-rule="nonzero" stroke="none" stroke-width="none" stroke-linecap="none" stroke-linejoin="none" stroke-miterlimit="10" stroke-dasharray="" stroke-dashoffset="0" font-family="none" font-weight="none" font-size="none" text-anchor="none" style="mix-blend-mode: normal"><g><rect x="0" y="0" width="256" height="256" stroke="none" stroke-width="1" stroke-linecap="butt" stroke-linejoin="miter"></rect><path d="M159.4,40c27.61679,7.41174 49.18826,28.98321 56.6,56.6" stroke="#555555" stroke-width="12" stroke-linecap="round" stroke-linejoin="round"></path><path d="M151.1,70.9c16.6128,4.41205 29.58795,17.3872 34,34" stroke="#555555" stroke-width="12" stroke-linecap="round" stroke-linejoin="round"></path><path d="M92.5,124.8c8.23221,17.00013 21.97879,30.71147 39,38.9c2.55444,1.20954 5.55754,0.98146 7.9,-0.6l25,-16.7c2.24511,-1.52275 5.11451,-1.78704 7.6,-0.7l46.8,20.1c3.28793,1.36847 5.25374,4.76767 4.8,8.3c-3.06871,23.95143 -23.45279,41.89456 -47.6,41.9c-75.11073,0 -136,-60.88927 -136,-136c0.00544,-24.14721 17.94857,-44.53129 41.9,-47.6c3.53233,-0.45374 6.93153,1.51207 8.3,4.8l20.1,46.9c1.06145,2.44392 0.8365,5.25591 -0.6,7.5l-16.7,25.4c-1.51186,2.3361 -1.70121,5.28998 -0.5,7.8z" stroke="#555555" stroke-width="12" stroke-linecap="round" stroke-linejoin="round"></path></g></g></svg>