<svg version="1.1" xmlns="http://www.w3.org/2000/svg" xmlns:xlink="http://www.w3.org/1999/xlink" width="48px" height="48px" viewBox="0,0,256,256"><g fill="none" fill-rule="nonzero" stroke="none" stroke-width="1" stroke-linecap="butt" stroke-linejoin="miter" stroke-miterlimit="10" stroke-dasharray="" stroke-dashoffset="0" font-family="none" font-weight="none" font-size="none" text-anchor="none" style="mix-blend-mode: normal"><g transform="scale(5.33333,5.33333)"><path d="M42,37c0,2.762 -2.238,5 -5,5h-26c-2.761,0 -5,-2.238 -5,-5v-26c0,-2.762 2.239,-5 5,-5h26c2.762,0 5,2.238 5,5z" fill="#b58152"></path><path d="M31.893,24.633c-0.736,-0.803 -1.721,-1.331 -2.947,-1.592l-0.682,-0.105c0.854,-0.36 1.521,-0.919 2.006,-1.684c0.486,-0.762 0.73,-1.628 0.73,-2.606c0,-4.646 -6.096,-4.646 -7.554,-4.646h-6.446v20h8.059c1.381,0 2.512,-0.127 3.406,-0.376c0.897,-0.252 1.721,-0.673 2.468,-1.261c0.63,-0.496 1.134,-1.114 1.505,-1.866c0.375,-0.753 0.562,-1.628 0.562,-2.622c0,-1.359 -0.37,-2.439 -1.107,-3.242zM22,18h1.822c0,0 2.181,-0.063 2.181,2c0,2.063 -2.118,2 -2.118,2h-1.885zM24.957,30c-0.496,0.021 -1.39,0.008 -2.688,0.008h-0.269v-5.008h3.043c0.529,0.014 2.957,-0.08 2.957,2.46c0,2.54 -2.547,2.522 -3.043,2.54z" fill="#ffffff"></path></g></g></svg>